:SAMPLES-PER-SECOND 30
:FRAME-RANGE 1-2643
:FULLY-SPECIFIED
:DEGREES
331
root  12.4203 38.9488 44.5421 14.3198 11.6646 -4.59766
RightUpLeg  -16.8718 -8.98996 4.27639
RightLeg  23.7007 0.0926717 -0.174987
RightFoot  -15.0804 0.12211 6.87034
RightToes  5.38607e-012 1.2921e-014 -6.02303e-014
Spine  19.5547 0.00383808 2.83605
Spine1  0.27408 1.15601 -4.62684
HEad  7.55195 -19.0006 6.94252
LeftShoulder1  0.350282 2.03718 -21.4967
LeftArm  17.3153 19.0311 -35.0077
LeftForeArm  29.4781 -13.4431 -10.0985
LeftHand  -0.0469359 3.90772 2.15514
RightShoulder  1.50823 2.32397 20.4368
RightArm  -10.6515 -1.02275 43.8679
RightForeArm  82.3144 -5.95111 10.6996
RightHand  -0.0611051 -4.25811 -4.22272
LeftUpLeg  -47.3065 0.279838 3.69481
LeftLeg  25.1405 12.0617 6.43771
LeftFoot  -7.16235 0.205286 -4.44839
LeftToes  -4.79707e-012 -5.93756e-011 -7.55542e-012
332
root  12.6443 38.7013 46.3132 13.9591 10.4022 -4.96967
RightUpLeg  -12.9221 -7.29087 4.13256
RightLeg  22.6627 -0.245649 -0.330437
RightFoot  -17.3575 0.250696 7.00503
RightToes  5.38607e-012 1.2921e-014 -6.02303e-014
Spine  17.5596 0.255614 2.64223
Spine1  1.2671 1.28937 -4.65948
HEad  7.51606 -17.0867 6.39923
LeftShoulder1  0.226056 2.51263 -22.4659
LeftArm  15.6245 19.8564 -36.1721
LeftForeArm  35.6294 -11.1637 -11.3309
LeftHand  -0.0345144 3.73006 1.05556
RightShoulder  1.47284 1.81582 22.5257
RightArm  -14.8679 -4.18834 46.9445
RightForeArm  89.7432 -5.41901 9.427
RightHand  -0.0103219 -6.2346 -2.84315
LeftUpLeg  -47.2771 0.640602 3.5975
LeftLeg  20.6939 13.1195 5.73795
LeftFoot  -6.66951 0.221799 -4.45576
LeftToes  -4.79707e-012 -5.93756e-011 -7.55542e-012
333
root  12.9228 38.2054 48.051 13.3798 8.74541 -5.34882
RightUpLeg  -10.023 -5.5332 3.79873
RightLeg  24.3288 -0.152605 -0.296593
RightFoot  -20.499 0.46358 7.51702
RightToes  5.38607e-012 1.2921e-014 -6.02303e-014
Spine  16.0644 0.349817 1.93414
Spine1  1.97924 1.17351 -4.39877
HEad  7.15556 -14.4894 5.99255
LeftShoulder1  0.0181735 3.24091 -22.8691
LeftArm  9.60106 20.6908 -37.7905
LeftForeArm  40.4854 -7.52975 -12.4766
LeftHand  -0.0282442 3.75661 0.589111
RightShoulder  1.33172 0.873969 25.7668
RightArm  -18.2631 -7.08155 47.0932
RightForeArm  96.7387 -4.81256 7.64824
RightHand  -0.00170222 -7.89938 -1.80677
LeftUpLeg  -47.334 1.1767 3.49232
LeftLeg  19.536 14.5977 5.99135
LeftFoot  -6.70485 0.241296 -4.9659
LeftToes  -4.79707e-012 -5.93756e-011 -7.55542e-012
334
root  13.2757 37.5227 49.7664 12.3372 6.65582 -6.08063
RightUpLeg  -8.25224 -4.16388 3.27938
RightLeg  29.3401 1.53409 0.699955
RightFoot  -23.6089 0.753711 8.49328
RightToes  5.38607e-012 1.2921e-014 -6.02303e-014
Spine  14.8852 0.249867 0.859232
Spine1  2.96256 0.718325 -3.49709
HEad  6.93845 -10.5282 5.02587
LeftShoulder1  0.00284482 3.29396 -23.2931
LeftArm  3.32036 22.0786 -39.552
LeftForeArm  41.3612 -3.96611 -12.8314
LeftHand  -0.0326938 4.13064 1.01105
RightShoulder  1.22132 0.343295 27.4172
RightArm  -22.5925 -9.25977 47.4363
RightForeArm  99.6685 -4.27712 5.19342
RightHand  0.0194204 -8.44376 -2.36287
LeftUpLeg  -46.9333 2.84316 2.9996
LeftLeg  21.0084 14.644 6.44006
LeftFoot  -6.49868 0.323748 -6.73091
LeftToes  -4.79707e-012 -5.93756e-011 -7.55542e-012
335
root  13.699 36.8091 51.2977 11.23 3.64725 -6.39233
RightUpLeg  -8.59182 -3.35872 1.26738
RightLeg  38.1724 5.38588 4.26757
RightFoot  -25.0384 1.02301 9.91491
RightToes  5.38607e-012 1.2921e-014 -6.02303e-014
Spine  14.5824 -0.148331 -1.17083
Spine1  4.02499 0.294235 -3.57539
HEad  7.33527 -5.83854 4.13165
LeftShoulder1  0.0124231 3.262 -23.7761
LeftArm  -1.31858 23.294 -41.3263
LeftForeArm  40.8719 -1.27814 -12.4943
LeftHand  -0.0351734 4.08802 1.25022
RightShoulder  1.18729 0.246896 27.3591
RightArm  -24.9801 -10.5858 47.937
RightForeArm  98.1246 -4.13798 3.90912
RightHand  0.104311 -9.08305 -4.60762
LeftUpLeg  -46.012 4.91952 1.7136
LeftLeg  23.1583 12.4273 6.09657
LeftFoot  -4.53019 0.266967 -4.02881
LeftToes  -4.79707e-012 -5.93756e-011 -7.55542e-012
336
root  14.2181 35.9438 52.744 10.2742 0.518072 -6.29361
RightUpLeg  -12.2357 -2.14466 -2.37256
RightLeg  52.1387 9.07727 11.965
RightFoot  -22.4048 1.06227 12.4995
RightToes  5.38607e-012 1.2921e-014 -6.02303e-014
Spine  15.7772 -0.719071 -3.29291
Spine1  2.70623 -0.7261 -3.51712
HEad  7.96239 -0.931703 3.57608
LeftShoulder1  0.0205006 3.23623 -24.3807
LeftArm  -3.26691 23.4086 -42.3027
LeftForeArm  39.3579 0.65413 -12.1539
LeftHand  -0.0342281 3.91031 1.08875
RightShoulder  1.18594 0.258437 27.2073
RightArm  -25.3622 -11.3282 47.7206
RightForeArm  94.1198 -4.31509 3.8489
RightHand  0.0861769 -8.28 -4.98967
LeftUpLeg  -47.999 4.23754 2.41516
LeftLeg  31.4279 12.0064 8.16211
LeftFoot  5.9726 -0.606539 3.74383
LeftToes  -4.79707e-012 -5.93756e-011 -7.55542e-012
337
root  14.7138 35.3556 54.2488 8.76819 -0.645206 -4.68488
RightUpLeg  -17.0302 -0.694682 -7.20777
RightLeg  66.0834 8.05204 18.6327
RightFoot  -13.4539 0.180301 14.6831
RightToes  5.38607e-012 1.2921e-014 -6.02303e-014
Spine  17.0573 -0.781368 -5.97095
Spine1  2.62057 -1.63833 -1.9574
HEad  7.34955 1.45322 2.57933
LeftShoulder1  0.32391 2.25307 -24.8402
LeftArm  -1.90907 18.4965 -42.9997
LeftForeArm  38.6393 3.61246 -12.7383
LeftHand  -0.0286757 4.07314 0.621142
RightShoulder  1.21902 0.485794 26.0473
RightArm  -27.6167 -13.0837 48.6801
RightForeArm  90.3829 -4.3046 2.75041
RightHand  0.0774019 -7.59244 -5.8584
LeftUpLeg  -48.4222 4.30744 0.0370371
LeftLeg  40.3106 11.2809 10.4694
LeftFoot  0.912165 -0.625066 5.7666
LeftToes  -4.79707e-012 -5.93756e-011 -7.55542e-012
338
root  15.1905 35.0663 55.6227 6.66321 -1.47409 -4.04779
RightUpLeg  -22.1765 2.40679 -8.86219
RightLeg  76.4929 3.77691 16.7374
RightFoot  -3.18153 -0.912121 12.4367
RightToes  5.38607e-012 1.2921e-014 -6.02303e-014
Spine  18.8419 -0.859447 -5.14516
Spine1  2.28329 -1.33293 -3.48509
HEad  9.06991 3.30956 0.816847
LeftShoulder1  0.559044 1.48085 -24.6814
LeftArm  -2.34474 13.1458 -43.7289
LeftForeArm  42.939 3.84772 -12.4502
LeftHand  -0.0286387 5.24084 0.339048
RightShoulder  1.23294 0.474077 26.5374
RightArm  -30.245 -12.4931 48.1086
RightForeArm  87.3952 -4.17637 1.1811
RightHand  0.162059 -7.83724 -9.11502
LeftUpLeg  -46.4549 4.81761 -1.25137
LeftLeg  45.9108 10.5618 11.8799
LeftFoot  -4.23159 -0.29413 5.14234
LeftToes  -4.79707e-012 -5.93756e-011 -7.55542e-012
339
root  15.6112 34.9076 56.9209 5.50314 -0.320925 -3.29538
RightUpLeg  -26.2243 4.4668 -9.42506
RightLeg  82.8573 1.28884 11.0863
RightFoot  -5.03021 -0.644509 11.035
RightToes  5.38607e-012 1.2921e-014 -6.02303e-014
Spine  19.4262 -1.12044 -5.15398
Spine1  2.14034 -1.80689 -2.74352
HEad  10.7172 6.22787 -1.8563
LeftShoulder1  0.80692 0.67096 -24.6714
LeftArm  -2.40391 8.19334 -44.7516
LeftForeArm  41.0587 2.38504 -12.3089
LeftHand  -0.0230572 5.55994 2.8284
RightShoulder  1.26172 0.639344 25.8797
RightArm  -32.1411 -12.1374 48.367
RightForeArm  86.8794 -4.00595 0.0418572
RightHand  0.28458 -8.96224 -10.2874
LeftUpLeg  -44.5599 3.6923 -2.64624
LeftLeg  49.2062 10.0422 12.6772
LeftFoot  -8.08825 -0.0807135 4.55566
LeftToes  -4.79707e-012 -5.93756e-011 -7.55542e-012
340
root  16.0627 35.1035 58.236 4.64355 1.83469 -2.36172
RightUpLeg  -29.7051 5.33122 -9.79538
RightLeg  84.7796 0.625401 6.07402
RightFoot  -6.36807 -0.294609 5.7801
RightToes  5.38607e-012 1.2921e-014 -6.02303e-014
Spine  19.5755 -1.405 -4.33303
Spine1  1.95699 -2.0517 -2.03054
HEad  11.14 10.082 -4.05662
LeftShoulder1  1.0342 -0.162535 -23.8273
LeftArm  -2.42413 2.74282 -46.7397
LeftForeArm  37.6069 0.858948 -12.2333
LeftHand  -0.0131137 5.60161 5.94673
RightShoulder  1.21912 0.532872 25.6389
RightArm  -33.1815 -12.273 48.0391
RightForeArm  87.1089 -3.88233 -0.620408
RightHand  0.329141 -9.40988 -10.4592
LeftUpLeg  -41.2482 2.11775 -4.36764
LeftLeg  49.4415 9.7965 12.4921
LeftFoot  -10.7202 0.0400792 4.50336
LeftToes  -4.79707e-012 -5.93756e-011 -7.55542e-012
341
root  16.4916 35.5104 59.5157 4.05496 4.05352 -1.52347
RightUpLeg  -32.4251 6.43405 -10.089
RightLeg  82.2562 0.529922 2.51311
RightFoot  -7.45916 -0.225863 5.16313
RightToes  5.38607e-012 1.2921e-014 -6.02303e-014
Spine  19.3838 -1.74565 -3.04194
Spine1  1.77843 -2.08853 -1.97786
HEad  11.1125 16.0203 -5.85317
LeftShoulder1  1.19552 -0.800758 -23.0863
LeftArm  -2.45192 -1.68848 -48.2383
LeftForeArm  36.5634 -3.44753 -11.7198
LeftHand  -0.0420462 4.98454 5.99761
RightShoulder  1.21749 0.538524 25.5455
RightArm  -33.8337 -12.6552 47.7828
RightForeArm  87.2072 -3.80747 -1.03072
RightHand  0.307925 -9.24181 -10.2715
LeftUpLeg  -37.2029 0.547525 -5.88078
LeftLeg  47.8201 9.8956 11.9345
LeftFoot  -12.4142 0.117535 4.57706
LeftToes  -4.79707e-012 -5.93756e-011 -7.55542e-012
342
root  16.8607 35.9584 60.7503 3.68954 6.57887 -0.907471
RightUpLeg  -34.0934 7.64145 -10.2284
RightLeg  76.2575 0.362695 0.461752
RightFoot  -10.7689 -0.0960658 4.59084
RightToes  5.38607e-012 1.2921e-014 -6.02303e-014
Spine  18.9399 -2.09545 -2.01512
Spine1  1.57142 -2.19437 -1.79499
HEad  10.2315 21.628 -7.88519
LeftShoulder1  1.19734 -0.901712 -22.3932
LeftArm  1.94331 -6.09902 -49.9792
LeftForeArm  33.3425 -8.43075 -11.0586
LeftHand  -0.0542752 4.67609 5.55528
RightShoulder  1.20969 0.52633 25.4363
RightArm  -33.7787 -13.6578 47.5208
RightForeArm  86.2775 -3.87012 -0.909353
RightHand  0.278926 -9.08541 -9.8069
LeftUpLeg  -33.0579 -1.3162 -6.9858
LeftLeg  45.4312 10.0574 11.1832
LeftFoot  -13.6582 0.178365 4.75658
LeftToes  -4.79707e-012 -5.93756e-011 -7.55542e-012
343
root  17.2348 36.4371 61.9895 3.56705 9.17277 -0.528687
RightUpLeg  -34.8825 9.06334 -10.4236
RightLeg  67.1181 -0.30774 -1.48334
RightFoot  -12.7512 -0.0280202 4.75229
RightToes  5.38607e-012 1.2921e-014 -6.02303e-014
Spine  17.7367 -2.28477 -0.839663
Spine1  1.77388 -2.14343 -1.40093
HEad  9.50299 25.8955 -10.2739
LeftShoulder1  1.26209 -1.27934 -21.4047
LeftArm  5.79668 -10.4855 -52.8243
LeftForeArm  31.5525 -11.2431 -10.1852
LeftHand  -0.0691004 4.28965 5.33785
RightShoulder  1.17267 0.419369 25.3372
RightArm  -34.1571 -14.535 47.1365
RightForeArm  85.8533 -3.85362 -1.11588
RightHand  0.243399 -8.76474 -9.49888
LeftUpLeg  -28.862 -3.41159 -7.79945
LeftLeg  42.4285 10.5131 10.5417
LeftFoot  -14.5457 0.226208 4.95746
LeftToes  -4.79707e-012 -5.93756e-011 -7.55542e-012
344
root  17.6259 36.8672 63.2328 3.84189 12.0129 -0.526367
RightUpLeg  -34.896 9.99759 -10.7418
RightLeg  55.3218 -1.56309 -2.84119
RightFoot  -12.2145 -0.0369658 6.03044
RightToes  5.38607e-012 1.2921e-014 -6.02303e-014
Spine  16.4049 -2.68039 0.593787
Spine1  1.14496 -2.2885 -1.00404
HEad  9.7277 28.563 -12.0393
LeftShoulder1  1.30035 -1.61739 -20.2169
LeftArm  9.53543 -12.6941 -56.0095
LeftForeArm  28.3861 -14.3488 -8.68815
LeftHand  -0.0772646 4.04 5.1393
RightShoulder  1.11793 0.259898 25.1913
RightArm  -34.0951 -15.6905 46.6498
RightForeArm  85.9841 -3.85791 -1.05689
RightHand  0.236551 -8.75514 -9.30045
LeftUpLeg  -25.1619 -5.86788 -8.1561
LeftLeg  39.4034 10.9239 9.87119
LeftFoot  -15.2389 0.274182 5.36096
LeftToes  -4.79707e-012 -5.93756e-011 -7.55542e-012
345
root  18.0501 37.2719 64.4953 4.49451 14.5971 -0.622192
RightUpLeg  -34.0101 11.1555 -11.7735
RightLeg  40.8904 -1.75789 -1.90745
RightFoot  -10.4584 -0.118629 6.16437
RightToes  5.38607e-012 1.2921e-014 -6.02303e-014
Spine  14.1169 -2.92288 2.07875
Spine1  1.3886 -2.34969 -0.651559
HEad  9.25257 29.1187 -14.0008
LeftShoulder1  1.2695 -1.59372 -19.6782
LeftArm  12.1117 -14.6787 -58.7244
LeftForeArm  25.0979 -15.9587 -7.80774
LeftHand  -0.10318 3.48726 5.40081
RightShoulder  1.09194 0.185819 25.1019
RightArm  -33.5192 -16.7766 45.9513
RightForeArm  85.2211 -3.96114 -0.654163
RightHand  0.217096 -8.63167 -8.96309
LeftUpLeg  -21.7579 -7.84385 -8.35143
LeftLeg  36.0518 11.0629 8.91165
LeftFoot  -15.8535 0.319229 5.67818
LeftToes  -4.79707e-012 -5.93756e-011 -7.55542e-012
